<svg class="subclub-logo-blue" xmlns="http://www.w3.org/2000/svg" xmlns:xlink="http://www.w3.org/1999/xlink" version="1.1" x="0px" y="0px" width="399.389px" height="246.617px" viewBox="233.436 60.653 399.389 246.617" enable-background="new 233.436 60.653 399.389 246.617" xml:space="preserve"><g><path fill="#0000FE" d="M369.419 136.493l-10.602 0.815l-21.203 2.446c-26.096 4.894-57.9 13.048-71.764 30.2 c-4.893 5.708-8.97 11.417-11.417 20.387c-5.708 23.6 9 48.1 20.4 57.9c4.077 3.3 6.5 5.7 13 9.8 c6.524-11.417 12.232-20.388 18.756-29.358c14.679-21.202 30.989-41.59 46.483-61.162l25.281-30.173h-8.971V136.493z M407.747 138.124l-24.465 28.542c-16.31 21.203-34.25 41.591-49.745 63.609c-7.339 9.785-13.863 19.571-20.387 30.2 c-1.631 2.446-4.078 5.708-4.893 8.155c8.155 3.3 20.4 7.3 31.8 9.785c6.524 1.6 10.6 3.3 12.2 1.6 l15.495-21.203c9.786-13.863 21.203-28.542 31.804-41.591c13.863-17.94 27.727-30.988 41.59-48.93l21.203-22.018l0 0l-13.864-3.263 C435.474 140.6 421.6 138.1 407.7 138.1 M485.219 152.803l-9.785 9.786L452.6 187.1 c-25.28 31.805-53.823 61.978-76.657 97.044l0 0c82.365 8.2 150.051-13.863 195.718-48.114 c10.602-8.155 19.572-17.94 29.358-27.727v-0.815l-8.155-5.709l-18.756-11.417c-18.757-11.417-39.96-19.571-61.978-28.542 C503.976 158.5 495 154.4 485.2 152.8 M457.492 122.63v-20.388l-11.417-4.077l-19.571 19.571h0.815L457.492 122.6 L457.492 122.63z M334.353 83.487v34.25l29.358-2.446c16.31-0.815 23.6 0 35.1 0l21.203-22.834l0 0 c0 0-19.572-3.262-23.649-4.077c-2.446-0.815-10.601-1.631-22.018-2.446C359.633 83.5 348.2 83.5 334.4 83.5 M312.334 60.653c45.667 0 89.7 3.3 127.2 12.232c10.602 2.4 34.3 8.2 40.8 14.679v39.959 c16.31 4.1 22.8 5.7 32.6 9.786c12.232 4.9 23.6 8.2 35.1 13.863c17.94 8.2 35.9 18.8 51.4 28.5 c8.154 4.9 15.5 11.4 23.6 17.126l9.786 8.154c-5.709 10.602-17.126 23.649-26.097 30.989l-9.785 9 c-8.971 7.339-17.941 14.679-28.543 21.202c-23.649 14.68-51.376 25.28-82.364 32.62c-11.417 3.262-22.834 4.893-35.066 5.7 c-11.417 0.815-22.834 1.631-35.066 2.447c-13.863 0.815-25.28 0-34.251-0.816c-12.232-0.815-23.649-1.631-35.066-4.077 c-35.882-8.154-72.579-20.387-92.151-44.036c-6.524-8.155-12.232-17.126-16.31-27.727c-2.446-5.709-3.262-11.417-4.078-17.941 c-0.815-6.523-0.815-14.679 0-20.388c6.524-33.435 24.465-49.745 52.192-61.978c8.155-3.262 16.31-6.523 26.911-8.97V60.653 H312.334z"/></g></svg>